<?xml version="1.0" encoding="utf-8"?>
<!-- Generator: Adobe Illustrator 23.0.3, SVG Export Plug-In . SVG Version: 6.00 Build 0)  -->
<svg version="1.1" id="Layer_1" xmlns="http://www.w3.org/2000/svg" xmlns:xlink="http://www.w3.org/1999/xlink" x="0px" y="0px"
	 viewBox="0 0 140 48" style="enable-background:new 0 0 140 48;" xml:space="preserve">
<style type="text/css">
	.st0{fill:#231F20;}
	.st1{fill-rule:evenodd;clip-rule:evenodd;fill:#231F20;}
	.st2{enable-background:new    ;}
	.st3{fill:#212721;}
</style>
<title>Group 2</title>
<desc>Created with Sketch.</desc>
<g id="Page-1">
	<g id="Artboard" transform="translate(-11.000000, -8.000000)">
		<g id="Group-2" transform="translate(10.000000, 8.000000)">
			<g id="Group" transform="translate(113.533333, 0.000000)">
				<path id="Shape" class="st0" d="M18,11.5c0,3.4-2.7,6.1-6,6.1c-3.3,0-6-2.7-6-6.1s2.7-6.1,6-6.1S18,8.1,18,11.5z M12,1.2
					C6.5,1.2,2,5.8,2,11.5C2,17.1,6.5,21.7,12,21.7s10.1-4.6,10.1-10.3C22.1,5.8,17.6,1.2,12,1.2z"/>
				<path class="st0" d="M20,35.6c0,4.5-3.5,8.1-7.9,8.1S4.1,40,4.1,35.6c0-4.4,3.5-8.1,7.9-8.1C16.4,27.5,20,31.2,20,35.6z
					 M12,23.4c-6.6,0-12,5.5-12,12.2c0,6.8,5.4,12.2,12,12.2s12-5.5,12-12.2S18.6,23.4,12,23.4z"/>
				<path id="Path" class="st1" d="M23.8,0.2c-1.6,0-2.8,1.3-2.8,2.9C21,4.7,22.3,6,23.8,6c1.6,0,2.8-1.3,2.8-2.9
					C26.7,1.5,25.4,0.2,23.8,0.2z"/>
			</g>
			<g class="st2">
				<path class="st3" d="M14.8,19.7v1.2l-2.3,0.3c0.2,0.3,0.4,0.6,0.6,1s0.2,0.9,0.2,1.4c0,1.2-0.4,2.2-1.2,2.9s-2,1.1-3.4,1.1
					c-0.4,0-0.7,0-1-0.1c-0.8,0.4-1.2,0.9-1.2,1.6c0,0.3,0.1,0.6,0.4,0.7S7.6,30,8.3,30h2.2c1.3,0,2.4,0.3,3.1,0.8
					c0.7,0.6,1.1,1.4,1.1,2.4c0,1.4-0.5,2.4-1.6,3.1s-2.7,1.1-4.8,1.1c-1.6,0-2.9-0.3-3.7-0.9c-0.9-0.6-1.3-1.4-1.3-2.5
					c0-0.7,0.2-1.4,0.7-1.9c0.5-0.5,1.2-0.9,2-1.1c-0.3-0.1-0.6-0.4-0.8-0.7c-0.2-0.3-0.3-0.6-0.3-1c0-0.4,0.1-0.8,0.4-1.2
					c0.2-0.3,0.6-0.7,1.1-1c-0.6-0.3-1.2-0.7-1.6-1.3c-0.4-0.6-0.6-1.3-0.6-2.2c0-1.3,0.4-2.4,1.2-3.1c0.8-0.7,2-1.1,3.4-1.1
					c0.6,0,1.2,0.1,1.7,0.2H14.8z M4.9,34.1c0,0.7,0.3,1.2,0.8,1.5c0.6,0.3,1.4,0.5,2.4,0.5c1.6,0,2.7-0.2,3.5-0.7
					c0.8-0.5,1.1-1.1,1.1-1.9c0-0.7-0.2-1.1-0.6-1.4c-0.4-0.3-1.2-0.4-2.3-0.4H7.6c-0.8,0-1.5,0.2-2,0.6C5.2,32.7,4.9,33.3,4.9,34.1
					z M5.9,23.6c0,0.9,0.2,1.5,0.7,2c0.5,0.4,1.2,0.7,2,0.7c1.8,0,2.7-0.9,2.7-2.7c0-1.8-0.9-2.8-2.8-2.8c-0.9,0-1.5,0.2-2,0.7
					S5.9,22.7,5.9,23.6z"/>
				<path class="st3" d="M24.8,32l-0.4-1.8h-0.1c-0.6,0.8-1.2,1.3-1.8,1.6c-0.6,0.3-1.4,0.4-2.3,0.4c-1.2,0-2.2-0.3-2.9-0.9
					c-0.7-0.6-1-1.5-1-2.7c0-2.5,2-3.8,6-3.9l2.1-0.1v-0.8c0-1-0.2-1.7-0.6-2.1c-0.4-0.5-1.1-0.7-2-0.7c-1,0-2.2,0.3-3.5,0.9
					l-0.6-1.4c0.6-0.3,1.3-0.6,2-0.8c0.7-0.2,1.4-0.3,2.2-0.3c1.5,0,2.6,0.3,3.3,1c0.7,0.7,1.1,1.7,1.1,3.1V32H24.8z M20.6,30.7
					c1.2,0,2.1-0.3,2.7-1c0.7-0.6,1-1.5,1-2.7v-1.1L22.5,26c-1.5,0.1-2.6,0.3-3.2,0.7c-0.7,0.4-1,1-1,1.9c0,0.7,0.2,1.2,0.6,1.5
					C19.3,30.5,19.9,30.7,20.6,30.7z"/>
				<path class="st3" d="M32.8,32l-4.7-12.3h2l2.7,7.3c0.6,1.7,1,2.8,1.1,3.3h0.1c0.1-0.4,0.3-1.2,0.8-2.5c0.4-1.2,1.4-4,2.9-8.2h2
					L34.9,32H32.8z"/>
				<path class="st3" d="M47.2,19.5c0.5,0,1,0,1.5,0.1l-0.3,1.7c-0.5-0.1-1-0.2-1.3-0.2c-1,0-1.8,0.4-2.6,1.2
					c-0.7,0.8-1.1,1.8-1.1,3V32h-1.9V19.7h1.5l0.2,2.3h0.1c0.5-0.8,1-1.4,1.7-1.9S46.4,19.5,47.2,19.5z"/>
				<path class="st3" d="M50.8,16.4c0-0.4,0.1-0.7,0.3-0.9s0.5-0.3,0.8-0.3c0.3,0,0.6,0.1,0.8,0.3s0.3,0.5,0.3,0.9
					c0,0.4-0.1,0.7-0.3,0.9s-0.5,0.3-0.8,0.3c-0.3,0-0.6-0.1-0.8-0.3S50.8,16.8,50.8,16.4z M52.8,32H51V19.7h1.9V32z"/>
				<path class="st3" d="M58.7,32h-1.9V14.5h1.9V32z"/>
				<path class="st3" d="M67.8,32.2c-1.8,0-3.3-0.6-4.3-1.7c-1.1-1.1-1.6-2.6-1.6-4.6c0-2,0.5-3.6,1.5-4.7c1-1.2,2.3-1.8,3.9-1.8
					c1.5,0,2.8,0.5,3.7,1.5s1.3,2.4,1.3,4v1.2h-8.5c0,1.4,0.4,2.5,1.1,3.3c0.7,0.7,1.7,1.1,2.9,1.1c1.3,0,2.6-0.3,3.9-0.8v1.7
					c-0.7,0.3-1.3,0.5-1.9,0.6C69.4,32.2,68.6,32.2,67.8,32.2z M67.3,21c-1,0-1.8,0.3-2.4,1c-0.6,0.6-0.9,1.5-1,2.7h6.4
					c0-1.2-0.3-2.1-0.8-2.7S68.3,21,67.3,21z"/>
				<path class="st3" d="M83.5,28.6c0,1.1-0.4,2-1.3,2.7c-0.9,0.6-2.1,0.9-3.6,0.9c-1.6,0-2.9-0.3-3.8-0.8v-1.7
					c0.6,0.3,1.2,0.5,1.9,0.7s1.3,0.3,2,0.3c1,0,1.7-0.2,2.2-0.5c0.5-0.3,0.8-0.8,0.8-1.4c0-0.5-0.2-0.9-0.6-1.2
					c-0.4-0.3-1.2-0.7-2.4-1.2c-1.1-0.4-2-0.8-2.4-1.1c-0.5-0.3-0.8-0.7-1.1-1.1c-0.2-0.4-0.4-0.9-0.4-1.4c0-1,0.4-1.8,1.2-2.4
					c0.8-0.6,1.9-0.9,3.4-0.9c1.3,0,2.6,0.3,3.9,0.8l-0.7,1.5c-1.2-0.5-2.4-0.8-3.4-0.8c-0.9,0-1.5,0.1-2,0.4s-0.7,0.7-0.7,1.1
					c0,0.3,0.1,0.6,0.3,0.8c0.2,0.2,0.4,0.5,0.8,0.7c0.4,0.2,1.1,0.5,2.2,0.9c1.5,0.5,2.4,1.1,3,1.6S83.5,27.8,83.5,28.6z"/>
				<path class="st3" d="M91.4,32.2c-1.8,0-3.2-0.5-4.1-1.6c-1-1.1-1.5-2.6-1.5-4.7c0-2.1,0.5-3.6,1.5-4.8s2.4-1.7,4.2-1.7
					c0.6,0,1.2,0.1,1.8,0.2c0.6,0.1,1.1,0.3,1.4,0.4l-0.6,1.6c-0.4-0.2-0.9-0.3-1.3-0.4c-0.5-0.1-0.9-0.2-1.3-0.2
					c-2.5,0-3.8,1.6-3.8,4.8c0,1.5,0.3,2.7,0.9,3.5c0.6,0.8,1.5,1.2,2.7,1.2c1,0,2.1-0.2,3.2-0.7v1.7C93.7,32,92.7,32.2,91.4,32.2z"
					/>
				<path class="st3" d="M99.2,19.7v8c0,1,0.2,1.8,0.7,2.2c0.5,0.5,1.2,0.7,2.1,0.7c1.3,0,2.2-0.4,2.8-1.1c0.6-0.7,0.9-1.9,0.9-3.4
					v-6.5h1.9V32h-1.5l-0.3-1.7h-0.1c-0.4,0.6-0.9,1.1-1.6,1.4c-0.7,0.3-1.5,0.5-2.3,0.5c-1.5,0-2.6-0.4-3.4-1.1
					c-0.7-0.7-1.1-1.8-1.1-3.4v-8.1H99.2z"/>
			</g>
		</g>
	</g>
</g>
</svg>
