<?xml version="1.0" encoding="UTF-8"?>
<svg width="28px" height="48px" viewBox="0 0 28 48" version="1.1" xmlns="http://www.w3.org/2000/svg" xmlns:xlink="http://www.w3.org/1999/xlink">
    <!-- Generator: Sketch 52.6 (67491) - http://www.bohemiancoding.com/sketch -->
    <title>Group</title>
    <desc>Created with Sketch.</desc>
    <g id="Page-1" stroke="none" stroke-width="1" fill="none" fill-rule="evenodd">
        <g id="Artboard" transform="translate(-123.000000, -8.000000)" fill="#231F20">
            <g id="Group" transform="translate(123.533333, 8.000000)">
                <path d="M18.0363636,11.4556701 C18.0363636,14.8206186 15.3454545,17.5670103 12.0484848,17.5670103 C8.72727273,17.5670103 6.06060606,14.8206186 6.06060606,11.4556701 C6.06060606,8.09072165 8.75151515,5.3443299 12.0484848,5.3443299 C15.3454545,5.3443299 18.0363636,8.09072165 18.0363636,11.4556701 Z M12.0484848,1.1628866 C6.4969697,1.1628866 1.96363636,5.76494845 1.96363636,11.4556701 C1.96363636,17.1216495 6.4969697,21.7484536 12.0484848,21.7484536 C17.6,21.7484536 22.1333333,17.1463918 22.1333333,11.4556701 C22.1090909,5.78969072 17.6,1.1628866 12.0484848,1.1628866 Z" id="Shape" fill-rule="nonzero"></path>
                <path d="M19.9515152,35.5793814 C19.9515152,40.0329897 16.4121212,43.6453608 12.0484848,43.6453608 C7.68484848,43.6453608 4.14545455,40.0329897 4.14545455,35.5793814 C4.14545455,31.1505155 7.68484848,27.5134021 12.0484848,27.5134021 C16.3878788,27.5381443 19.9515152,31.1505155 19.9515152,35.5793814 Z M12.0484848,23.356701 C5.43030303,23.356701 0.0727272727,28.8494845 0.0727272727,35.5793814 C0.0727272727,42.3340206 5.45454545,47.8020619 12.0484848,47.8020619 C18.6424242,47.8020619 24.0242424,42.3092784 24.0242424,35.5793814 C24.0242424,28.8494845 18.6424242,23.356701 12.0484848,23.356701 Z" id="Shape" fill-rule="nonzero"></path>
                <path d="M23.830303,0.173195876 C22.2787879,0.173195876 20.9939394,1.45979381 20.9939394,3.06804124 C20.9939394,4.65154639 22.2545455,5.9628866 23.830303,5.9628866 C25.3818182,5.9628866 26.6666667,4.67628866 26.6666667,3.06804124 C26.6666667,1.48453608 25.4060606,0.173195876 23.830303,0.173195876 Z" id="Path"></path>
            </g>
        </g>
    </g>
</svg>